<svg version="1.2" xmlns="http://www.w3.org/2000/svg" viewBox="0 0 1308 1311" width="1308" height="1311">
	<title>Druva_Logo-svg</title>
	<style>
		.s0 { fill: #f99e29 }
	</style>
	<path id="Layer" fill-rule="evenodd" class="s0" d="m817.8 462.3c42.9-1.7 85.9-0.1 128.6 4.6 42.7 4.8 85 12.8 126.5 24 41.5 11.2 82 25.5 121.4 42.8 39.3 17.3 77.2 37.5 113.5 60.6-1.4 4.6-2.7 10.1-4.1 14.7q-4.9 15.8-10.3 31.3-5.4 15.6-11.2 31-5.9 15.4-12.2 30.6-6.2 15.2-13 30.3-7.9 18.9-16.7 37.4-8.9 18.5-18.7 36.5-9.9 18-20.6 35.5-10.8 17.4-22.4 34.3-10.5 14.6-21.6 28.6-11.1 14.1-22.9 27.6-11.8 13.5-24.2 26.4-12.5 12.9-25.5 25.2-13.8 12.3-28.2 23.9-14.4 11.6-29.3 22.5-14.9 10.9-30.3 21.1-15.5 10.2-31.4 19.5c-19.7 12.1-39.9 21.6-61.6 33.1q6.3-30.8 11.7-61.9 5.4-31 9.7-62.3 4.4-31.2 7.7-62.5 3.4-31.3 5.8-62.8 0.4-7.9 0.6-15.9 0.2-7.9 0.2-15.9 0-7.9-0.2-15.9-0.2-7.9-0.6-15.9-1-15.3-2.8-30.6-1.8-15.2-4.4-30.4-2.5-15.2-5.8-30.2-3.3-15-7.4-29.8-6.3-21.5-14-42.5-7.8-21-17-41.4-9.1-20.4-19.7-40.2-10.6-19.7-22.5-38.7l-27.1-43.3zm-600 416.1q0 0.2 0 0.4-1-0.2-2-0.4zm0 0.4c184 40 384.5 17.5 660.4-85.6v13.6c0 29.8 1.9 59.7 0 89.4-0.7 16.9-4.1 56.4-8.2 82.5q-2.1 16.4-4.9 32.6-2.8 16.2-6.3 32.3-3.5 16.1-7.6 32-4.2 15.9-9 31.7-5.2 16.4-11 32.6-5.8 16.3-12.3 32.2-6.4 16-13.4 31.7-7.1 15.8-14.8 31.2l-29.7 59.5q-1.1 2.1-2.2 4.2-1.1 2.1-2.3 4.1-1.2 2-2.5 4-1.2 2-2.5 4-10.5-2.9-20.9-6-10.4-3.1-20.8-6.5-10.3-3.4-20.5-7-10.3-3.7-20.4-7.6c-33.7-12.1-68.2-25.8-101.6-40.7q-18.5-8.1-36.7-17.2-18.1-9-35.8-18.9-17.7-9.9-34.9-20.7-17.1-10.8-33.7-22.4l-21.1-16.2q-11.5-9.7-22.5-19.9-11-10.2-21.6-20.9-10.6-10.7-20.7-21.8-10-11.2-19.6-22.7-11.4-14-22-28.6-10.6-14.6-20.3-29.7-9.8-15.2-18.6-30.9-8.9-15.6-16.9-31.8c-8.8-18.3-16.3-37.8-24.4-56.8q-0.2-0.8-0.3-1.5-0.2-0.8-0.3-1.5 0-0.8-0.1-1.6 0-0.5 0-1.1zm-217.4-144.3q4.9-15 10.3-29.8 5.4-14.9 11.2-29.6 5.7-14.8 11.9-29.3 6.2-14.6 12.7-29c14.1-31 28.4-62.2 44-92.6q8.4-17.2 17.8-33.8 9.4-16.7 19.8-32.8 10.3-16.1 21.6-31.6 11.2-15.5 23.3-30.3 8.2-9.7 16.7-19.1 8.5-9.5 17.2-18.7 8.7-9.2 17.6-18.2 9-9 18.1-17.8 11.6-11.4 23.6-22.3 12.1-10.9 24.5-21.3 12.5-10.4 25.3-20.3 12.9-10 26.1-19.3 11-7.8 22.2-15.3 11.2-7.4 22.6-14.6 11.5-7.1 23.1-13.8 11.6-6.8 23.5-13.2c-0.6 5.5-1.4 9.5-2 13.6-3.4 16.7-6.7 25.6-10.8 51.4-4 25.8-8.8 51.1-12.2 77.1-1.3 11.8-0.7 14-2.7 34.9-2 20.9-2.7 41.9-3.4 62.8q-0.4 7.9-0.6 15.9-0.2 7.9-0.1 15.9 0.1 7.9 0.5 15.9 0.3 7.9 0.9 15.9c3.4 29 5.4 58.8 11.5 88q2.6 12.5 5.5 24.9 2.9 12.5 6.1 24.8 3.3 12.3 6.9 24.6 3.6 12.2 7.6 24.4 3.6 11.6 7.5 23.1 4 11.4 8.4 22.8 4.3 11.3 9.1 22.5 4.7 11.2 9.9 22.2c7.4 16.1 14.9 32.4 22.4 48l13.5 24.4q-11 2-22 3.8-11.1 1.7-22.2 3.1-11.1 1.5-22.2 2.6-11.2 1.1-22.3 1.9c-19 1.3-37.2 2.7-55.5 2.7q-23.2 0-46.2-1.7-23.1-1.8-45.9-5.4-22.9-3.5-45.4-8.9-22.4-5.4-44.4-12.5-7.4-2.4-14.7-4.9-7.2-2.6-14.4-5.4-7.2-2.8-14.4-5.7-7.1-3-14.1-6.2c-30.4-13.6-60.9-29.2-90.7-44l-36.5-19.6zm600.3-730.8c45.3 15 89.9 30.4 133.2 49.4q21 8.6 41.5 18.2 20.5 9.6 40.6 20.1 20 10.5 39.6 21.9 19.5 11.4 38.5 23.7 10.4 7.2 20.4 14.9 10.1 7.7 19.7 15.8 9.7 8.1 19 16.7 9.3 8.6 18.1 17.6 15 15.1 28.9 31 14 16 27 32.7 13 16.8 24.9 34.4 12 17.5 22.8 35.7 8 13.6 15.4 27.5 7.4 13.9 14.2 28.1 6.8 14.3 13 28.8 6.2 14.5 11.7 29.2c-54.2-15-109.8-24.9-165.9-29.3-56.1-4.5-112.5-3.5-168.5 2.9-55.9 6.3-111.1 18.1-164.8 35-53.7 16.9-105.6 39-155 65.9q-1.9-13.5-3.3-27-1.4-13.6-2.2-27.1-0.9-13.6-1.2-27.2-0.3-13.6-0.1-27.2c0.7-26.2 1.3-51.4 3.4-77.1q0.6-10 1.6-19.9 0.9-10 2.1-19.9 1.2-9.9 2.6-19.7 1.5-9.9 3.2-19.7 2.7-14.4 6.2-28.7 3.5-14.2 7.7-28.3 4.1-14.1 9-27.9 4.9-13.8 10.5-27.4 4.5-11.3 9.3-22.5 4.8-11.2 9.8-22.3 5.1-11.1 10.5-22 5.4-11 11.1-21.8c10.2-19.6 22.4-38.5 33.1-58.1l12.9 3.4z"/>
</svg>